<svg width="250" height="116" viewBox="0 0 250 116" fill="none" xmlns="http://www.w3.org/2000/svg">
<path d="M45 108H41.4091V96.3636H45.1591C46.2879 96.3636 47.2538 96.5966 48.0568 97.0625C48.8598 97.5246 49.4754 98.1894 49.9034 99.0568C50.3314 99.9205 50.5455 100.955 50.5455 102.159C50.5455 103.371 50.3295 104.415 49.8977 105.29C49.4659 106.161 48.8371 106.831 48.0114 107.301C47.1856 107.767 46.1818 108 45 108ZM42.8182 106.75H44.9091C45.8712 106.75 46.6686 106.564 47.3011 106.193C47.9337 105.822 48.4053 105.294 48.7159 104.608C49.0265 103.922 49.1818 103.106 49.1818 102.159C49.1818 101.22 49.0284 100.411 48.7216 99.733C48.4148 99.0511 47.9564 98.5284 47.3466 98.1648C46.7367 97.7973 45.9773 97.6136 45.0682 97.6136H42.8182V106.75ZM52.7273 108V99.2727H54.0682V108H52.7273ZM53.4091 97.8182C53.1477 97.8182 52.9223 97.7292 52.733 97.5511C52.5473 97.3731 52.4545 97.1591 52.4545 96.9091C52.4545 96.6591 52.5473 96.4451 52.733 96.267C52.9223 96.089 53.1477 96 53.4091 96C53.6705 96 53.8939 96.089 54.0795 96.267C54.2689 96.4451 54.3636 96.6591 54.3636 96.9091C54.3636 97.1591 54.2689 97.3731 54.0795 97.5511C53.8939 97.7292 53.6705 97.8182 53.4091 97.8182ZM62.706 101.227L61.5014 101.568C61.4257 101.367 61.3139 101.172 61.1662 100.983C61.0223 100.79 60.8253 100.631 60.5753 100.506C60.3253 100.381 60.0052 100.318 59.6151 100.318C59.081 100.318 58.6359 100.441 58.2798 100.688C57.9276 100.93 57.7514 101.239 57.7514 101.614C57.7514 101.947 57.8726 102.21 58.1151 102.403C58.3575 102.597 58.7363 102.758 59.2514 102.886L60.5469 103.205C61.3272 103.394 61.9086 103.684 62.2912 104.074C62.6738 104.46 62.8651 104.958 62.8651 105.568C62.8651 106.068 62.7211 106.515 62.4332 106.909C62.1491 107.303 61.7514 107.614 61.2401 107.841C60.7287 108.068 60.134 108.182 59.456 108.182C58.5658 108.182 57.8291 107.989 57.2457 107.602C56.6624 107.216 56.2931 106.652 56.1378 105.909L57.4105 105.591C57.5317 106.061 57.7609 106.413 58.098 106.648C58.4389 106.883 58.884 107 59.4332 107C60.0582 107 60.5545 106.867 60.9219 106.602C61.2931 106.333 61.4787 106.011 61.4787 105.636C61.4787 105.333 61.3726 105.08 61.1605 104.875C60.9484 104.667 60.6226 104.511 60.1832 104.409L58.7287 104.068C57.9295 103.879 57.3423 103.585 56.9673 103.188C56.5961 102.786 56.4105 102.284 56.4105 101.682C56.4105 101.189 56.5488 100.754 56.8253 100.375C57.1056 99.9962 57.4863 99.6989 57.9673 99.483C58.4522 99.267 59.0014 99.1591 59.6151 99.1591C60.4787 99.1591 61.1567 99.3485 61.6491 99.7273C62.1454 100.106 62.4976 100.606 62.706 101.227ZM67.4517 108.205C66.8987 108.205 66.3968 108.1 65.946 107.892C65.4953 107.68 65.1373 107.375 64.8722 106.977C64.607 106.576 64.4744 106.091 64.4744 105.523C64.4744 105.023 64.5729 104.617 64.7699 104.307C64.9669 103.992 65.2301 103.746 65.5597 103.568C65.8892 103.39 66.2528 103.258 66.6506 103.17C67.0521 103.08 67.4555 103.008 67.8608 102.955C68.3911 102.886 68.821 102.835 69.1506 102.801C69.4839 102.763 69.7263 102.701 69.8778 102.614C70.0331 102.527 70.1108 102.375 70.1108 102.159V102.114C70.1108 101.553 69.9574 101.117 69.6506 100.807C69.3475 100.496 68.8873 100.341 68.2699 100.341C67.6297 100.341 67.1278 100.481 66.7642 100.761C66.4006 101.042 66.1449 101.341 65.9972 101.659L64.7244 101.205C64.9517 100.674 65.2547 100.261 65.6335 99.9659C66.0161 99.6667 66.4328 99.4583 66.8835 99.3409C67.3381 99.2197 67.785 99.1591 68.2244 99.1591C68.5047 99.1591 68.8267 99.1932 69.1903 99.2614C69.5578 99.3258 69.9119 99.4602 70.2528 99.6648C70.5975 99.8693 70.8835 100.178 71.1108 100.591C71.3381 101.004 71.4517 101.557 71.4517 102.25V108H70.1108V106.818H70.0426C69.9517 107.008 69.8002 107.21 69.5881 107.426C69.3759 107.642 69.0938 107.826 68.7415 107.977C68.3892 108.129 67.9593 108.205 67.4517 108.205ZM67.6562 107C68.1866 107 68.6335 106.896 68.9972 106.688C69.3646 106.479 69.6411 106.21 69.8267 105.881C70.0161 105.551 70.1108 105.205 70.1108 104.841V103.614C70.054 103.682 69.929 103.744 69.7358 103.801C69.5464 103.854 69.3267 103.902 69.0767 103.943C68.8305 103.981 68.59 104.015 68.3551 104.045C68.1241 104.072 67.9366 104.095 67.7926 104.114C67.4441 104.159 67.1184 104.233 66.8153 104.335C66.5161 104.434 66.2737 104.583 66.0881 104.784C65.9063 104.981 65.8153 105.25 65.8153 105.591C65.8153 106.057 65.9877 106.409 66.3324 106.648C66.6809 106.883 67.1222 107 67.6562 107ZM74.081 108V96.3636H75.4219V100.659H75.5355C75.634 100.508 75.7704 100.314 75.9446 100.08C76.1226 99.8409 76.3764 99.6288 76.706 99.4432C77.0393 99.2538 77.4901 99.1591 78.0582 99.1591C78.7931 99.1591 79.4408 99.3428 80.0014 99.7102C80.562 100.078 80.9995 100.598 81.3139 101.273C81.6283 101.947 81.7855 102.742 81.7855 103.659C81.7855 104.583 81.6283 105.384 81.3139 106.062C80.9995 106.737 80.5639 107.259 80.0071 107.631C79.4503 107.998 78.8082 108.182 78.081 108.182C77.5204 108.182 77.0715 108.089 76.7344 107.903C76.3973 107.714 76.1378 107.5 75.956 107.261C75.7741 107.019 75.634 106.818 75.5355 106.659H75.3764V108H74.081ZM75.3991 103.636C75.3991 104.295 75.4957 104.877 75.6889 105.381C75.8821 105.881 76.1643 106.273 76.5355 106.557C76.9067 106.837 77.3613 106.977 77.8991 106.977C78.4598 106.977 78.9276 106.83 79.3026 106.534C79.6813 106.235 79.9654 105.833 80.1548 105.33C80.348 104.822 80.4446 104.258 80.4446 103.636C80.4446 103.023 80.3499 102.47 80.1605 101.977C79.9749 101.481 79.6927 101.089 79.3139 100.801C78.9389 100.509 78.4673 100.364 77.8991 100.364C77.3537 100.364 76.8954 100.502 76.5241 100.778C76.1529 101.051 75.8726 101.434 75.6832 101.926C75.4938 102.415 75.3991 102.985 75.3991 103.636ZM85.1776 96.3636V108H83.8366V96.3636H85.1776ZM91.2926 108.182C90.4517 108.182 89.7263 107.996 89.1165 107.625C88.5104 107.25 88.0426 106.727 87.7131 106.057C87.3873 105.383 87.2244 104.598 87.2244 103.705C87.2244 102.811 87.3873 102.023 87.7131 101.341C88.0426 100.655 88.5009 100.121 89.0881 99.7386C89.679 99.3523 90.3684 99.1591 91.1562 99.1591C91.6108 99.1591 92.0597 99.2348 92.5028 99.3864C92.946 99.5379 93.3494 99.7841 93.7131 100.125C94.0767 100.462 94.3665 100.909 94.5824 101.466C94.7983 102.023 94.9062 102.708 94.9062 103.523V104.091H88.179V102.932H93.5426C93.5426 102.439 93.4441 102 93.2472 101.614C93.054 101.227 92.7775 100.922 92.4176 100.699C92.0616 100.475 91.6411 100.364 91.1562 100.364C90.6222 100.364 90.16 100.496 89.7699 100.761C89.3835 101.023 89.0862 101.364 88.8778 101.784C88.6695 102.205 88.5653 102.655 88.5653 103.136V103.909C88.5653 104.568 88.679 105.127 88.9062 105.585C89.1373 106.04 89.4574 106.386 89.8665 106.625C90.2756 106.86 90.7509 106.977 91.2926 106.977C91.6449 106.977 91.9631 106.928 92.2472 106.83C92.535 106.727 92.7831 106.576 92.9915 106.375C93.1998 106.17 93.3608 105.917 93.4744 105.614L94.7699 105.977C94.6335 106.417 94.4044 106.803 94.0824 107.136C93.7604 107.466 93.3627 107.723 92.8892 107.909C92.4157 108.091 91.8835 108.182 91.2926 108.182ZM100.241 108.182C99.5142 108.182 98.8722 107.998 98.3153 107.631C97.7585 107.259 97.3229 106.737 97.0085 106.062C96.6941 105.384 96.5369 104.583 96.5369 103.659C96.5369 102.742 96.6941 101.947 97.0085 101.273C97.3229 100.598 97.7604 100.078 98.321 99.7102C98.8816 99.3428 99.5294 99.1591 100.264 99.1591C100.832 99.1591 101.281 99.2538 101.611 99.4432C101.944 99.6288 102.198 99.8409 102.372 100.08C102.55 100.314 102.688 100.508 102.787 100.659H102.901V96.3636H104.241V108H102.946V106.659H102.787C102.688 106.818 102.548 107.019 102.366 107.261C102.185 107.5 101.925 107.714 101.588 107.903C101.251 108.089 100.802 108.182 100.241 108.182ZM100.423 106.977C100.961 106.977 101.416 106.837 101.787 106.557C102.158 106.273 102.44 105.881 102.634 105.381C102.827 104.877 102.923 104.295 102.923 103.636C102.923 102.985 102.829 102.415 102.639 101.926C102.45 101.434 102.17 101.051 101.798 100.778C101.427 100.502 100.969 100.364 100.423 100.364C99.8551 100.364 99.3816 100.509 99.0028 100.801C98.6278 101.089 98.3456 101.481 98.1562 101.977C97.9706 102.47 97.8778 103.023 97.8778 103.636C97.8778 104.258 97.9725 104.822 98.1619 105.33C98.3551 105.833 98.6392 106.235 99.0142 106.534C99.393 106.83 99.8627 106.977 100.423 106.977Z" fill="#DDE2E5"/>
<rect y="88" width="28" height="28" rx="4" fill="#DDE2E5"/>
<path d="M50.7727 56C50.3409 53.6136 48.4318 52.2045 46.0909 52.2045C43.1136 52.2045 40.9545 54.5 40.9545 58.1818C40.9545 61.8636 43.1136 64.1591 46.0909 64.1591C48.4318 64.1591 50.3409 62.75 50.7727 60.3636H49.3636C49.0227 61.9773 47.6364 62.8409 46.0909 62.8409C43.9773 62.8409 42.3182 61.2045 42.3182 58.1818C42.3182 55.1591 43.9773 53.5227 46.0909 53.5227C47.6364 53.5227 49.0227 54.3864 49.3636 56H50.7727ZM54.2088 58.75C54.2088 57.2273 55.1804 56.3636 56.5043 56.3636C57.7656 56.3636 58.527 57.1591 58.527 58.5455V64H59.8679V58.4545C59.8679 56.2102 58.6747 55.1591 56.8906 55.1591C55.5156 55.1591 54.7315 55.733 54.3224 56.6364H54.2088V52.3636H52.8679V64H54.2088V58.75ZM65.9801 64.1818C67.7528 64.1818 69.0483 63.2955 69.4574 61.9773L68.1619 61.6136C67.821 62.5227 67.0312 62.9773 65.9801 62.9773C64.4062 62.9773 63.321 61.9602 63.2585 60.0909H69.5938V59.5227C69.5938 56.2727 67.6619 55.1591 65.8438 55.1591C63.4801 55.1591 61.9119 57.0227 61.9119 59.7045C61.9119 62.3864 63.4574 64.1818 65.9801 64.1818ZM63.2585 58.9318C63.3494 57.5739 64.3097 56.3636 65.8438 56.3636C67.2983 56.3636 68.2301 57.4545 68.2301 58.9318H63.2585ZM75.179 64.1818C77.1108 64.1818 78.3835 63 78.6108 61.4545H77.2699C77.0199 62.4091 76.2244 62.9773 75.179 62.9773C73.5881 62.9773 72.5653 61.6591 72.5653 59.6364C72.5653 57.6591 73.6108 56.3636 75.179 56.3636C76.3608 56.3636 77.0653 57.0909 77.2699 57.8864H78.6108C78.3835 56.25 76.9972 55.1591 75.1562 55.1591C72.7926 55.1591 71.2244 57.0227 71.2244 59.6818C71.2244 62.2955 72.7244 64.1818 75.179 64.1818ZM80.571 64H81.9119V60.733L82.8494 59.8636L86.1165 64H87.821L83.8608 59L87.5483 55.2727H85.8892L82.071 59.1591H81.9119V52.3636H80.571V64ZM92.5739 64.1818C94.3466 64.1818 95.642 63.2955 96.0511 61.9773L94.7557 61.6136C94.4148 62.5227 93.625 62.9773 92.5739 62.9773C91 62.9773 89.9148 61.9602 89.8523 60.0909H96.1875V59.5227C96.1875 56.2727 94.2557 55.1591 92.4375 55.1591C90.0739 55.1591 88.5057 57.0227 88.5057 59.7045C88.5057 62.3864 90.0511 64.1818 92.5739 64.1818ZM89.8523 58.9318C89.9432 57.5739 90.9034 56.3636 92.4375 56.3636C93.892 56.3636 94.8239 57.4545 94.8239 58.9318H89.8523ZM101.523 64.1818C103.205 64.1818 103.773 63.1364 104.068 62.6591H104.227V64H105.523V52.3636H104.182V56.6591H104.068C103.773 56.2045 103.25 55.1591 101.545 55.1591C99.3409 55.1591 97.8182 56.9091 97.8182 59.6591C97.8182 62.4318 99.3409 64.1818 101.523 64.1818ZM101.705 62.9773C100.023 62.9773 99.1591 61.5 99.1591 59.6364C99.1591 57.7955 100 56.3636 101.705 56.3636C103.341 56.3636 104.205 57.6818 104.205 59.6364C104.205 61.6136 103.318 62.9773 101.705 62.9773Z" fill="#495057"/>
<rect y="44" width="28" height="28" rx="4" fill="#4263EB"/>
<path d="M8.5 58.5L12 62L20 53" stroke="white" stroke-width="3" stroke-linecap="round" stroke-linejoin="round"/>
<path d="M45 20H41.4091V8.36364H45.1591C46.2879 8.36364 47.2538 8.59659 48.0568 9.0625C48.8598 9.52462 49.4754 10.1894 49.9034 11.0568C50.3314 11.9205 50.5455 12.9545 50.5455 14.1591C50.5455 15.3712 50.3295 16.4148 49.8977 17.2898C49.4659 18.161 48.8371 18.8314 48.0114 19.3011C47.1856 19.767 46.1818 20 45 20ZM42.8182 18.75H44.9091C45.8712 18.75 46.6686 18.5644 47.3011 18.1932C47.9337 17.822 48.4053 17.2936 48.7159 16.608C49.0265 15.9223 49.1818 15.1061 49.1818 14.1591C49.1818 13.2197 49.0284 12.411 48.7216 11.733C48.4148 11.0511 47.9564 10.5284 47.3466 10.1648C46.7367 9.79735 45.9773 9.61364 45.0682 9.61364H42.8182V18.75ZM56.3864 20.1818C55.5455 20.1818 54.8201 19.9962 54.2102 19.625C53.6042 19.25 53.1364 18.7273 52.8068 18.0568C52.4811 17.3826 52.3182 16.5985 52.3182 15.7045C52.3182 14.8106 52.4811 14.0227 52.8068 13.3409C53.1364 12.6553 53.5947 12.1212 54.1818 11.7386C54.7727 11.3523 55.4621 11.1591 56.25 11.1591C56.7045 11.1591 57.1534 11.2348 57.5966 11.3864C58.0398 11.5379 58.4432 11.7841 58.8068 12.125C59.1705 12.4621 59.4602 12.9091 59.6761 13.4659C59.892 14.0227 60 14.7083 60 15.5227V16.0909H53.2727V14.9318H58.6364C58.6364 14.4394 58.5379 14 58.3409 13.6136C58.1477 13.2273 57.8712 12.9223 57.5114 12.6989C57.1553 12.4754 56.7348 12.3636 56.25 12.3636C55.7159 12.3636 55.2538 12.4962 54.8636 12.7614C54.4773 13.0227 54.1799 13.3636 53.9716 13.7841C53.7633 14.2045 53.6591 14.6553 53.6591 15.1364V15.9091C53.6591 16.5682 53.7727 17.1269 54 17.5852C54.2311 18.0398 54.5511 18.3864 54.9602 18.625C55.3693 18.8598 55.8447 18.9773 56.3864 18.9773C56.7386 18.9773 57.0568 18.928 57.3409 18.8295C57.6288 18.7273 57.8769 18.5758 58.0852 18.375C58.2936 18.1705 58.4545 17.9167 58.5682 17.6136L59.8636 17.9773C59.7273 18.4167 59.4981 18.803 59.1761 19.1364C58.8542 19.4659 58.4564 19.7235 57.983 19.9091C57.5095 20.0909 56.9773 20.1818 56.3864 20.1818ZM65.9261 11.2727V12.4091H61.2216V11.2727H65.9261ZM62.6307 20V10.0682C62.6307 9.56818 62.7481 9.15151 62.983 8.81818C63.2178 8.48485 63.5227 8.23485 63.8977 8.06818C64.2727 7.90151 64.6686 7.81818 65.0852 7.81818C65.4148 7.81818 65.6837 7.8447 65.892 7.89773C66.1004 7.95076 66.2557 8 66.358 8.04545L65.9716 9.20455C65.9034 9.18182 65.8087 9.15341 65.6875 9.11932C65.5701 9.08523 65.4148 9.06818 65.2216 9.06818C64.7784 9.06818 64.4583 9.17992 64.2614 9.40341C64.0682 9.62689 63.9716 9.95455 63.9716 10.3864V20H62.6307ZM70.1236 20.2045C69.5705 20.2045 69.0687 20.1004 68.6179 19.892C68.1671 19.6799 67.8092 19.375 67.544 18.9773C67.2789 18.5758 67.1463 18.0909 67.1463 17.5227C67.1463 17.0227 67.2448 16.6174 67.4418 16.3068C67.6387 15.9924 67.902 15.7462 68.2315 15.5682C68.5611 15.3902 68.9247 15.2576 69.3224 15.1705C69.724 15.0795 70.1274 15.0076 70.5327 14.9545C71.063 14.8864 71.4929 14.8352 71.8224 14.8011C72.1558 14.7633 72.3982 14.7008 72.5497 14.6136C72.705 14.5265 72.7827 14.375 72.7827 14.1591V14.1136C72.7827 13.553 72.6293 13.1174 72.3224 12.8068C72.0194 12.4962 71.5592 12.3409 70.9418 12.3409C70.3016 12.3409 69.7997 12.4811 69.4361 12.7614C69.0724 13.0417 68.8168 13.3409 68.669 13.6591L67.3963 13.2045C67.6236 12.6742 67.9266 12.2614 68.3054 11.9659C68.688 11.6667 69.1046 11.4583 69.5554 11.3409C70.0099 11.2197 70.4569 11.1591 70.8963 11.1591C71.1766 11.1591 71.4986 11.1932 71.8622 11.2614C72.2296 11.3258 72.5838 11.4602 72.9247 11.6648C73.2694 11.8693 73.5554 12.178 73.7827 12.5909C74.0099 13.0038 74.1236 13.5568 74.1236 14.25V20H72.7827V18.8182H72.7145C72.6236 19.0076 72.4721 19.2102 72.2599 19.4261C72.0478 19.642 71.7656 19.8258 71.4134 19.9773C71.0611 20.1288 70.6312 20.2045 70.1236 20.2045ZM70.3281 19C70.8584 19 71.3054 18.8958 71.669 18.6875C72.0365 18.4792 72.313 18.2102 72.4986 17.8807C72.688 17.5511 72.7827 17.2045 72.7827 16.8409V15.6136C72.7259 15.6818 72.6009 15.7443 72.4077 15.8011C72.2183 15.8542 71.9986 15.9015 71.7486 15.9432C71.5024 15.9811 71.2618 16.0152 71.027 16.0455C70.7959 16.072 70.6084 16.0947 70.4645 16.1136C70.116 16.1591 69.7902 16.233 69.4872 16.3352C69.188 16.4337 68.9455 16.5833 68.7599 16.7841C68.5781 16.9811 68.4872 17.25 68.4872 17.5909C68.4872 18.0568 68.6596 18.4091 69.0043 18.6477C69.3527 18.8826 69.794 19 70.3281 19ZM82.071 16.4318V11.2727H83.4119V20H82.071V18.5227H81.9801C81.7756 18.9659 81.4574 19.3428 81.0256 19.6534C80.5938 19.9602 80.0483 20.1136 79.3892 20.1136C78.8438 20.1136 78.3589 19.9943 77.9347 19.7557C77.5104 19.5133 77.1771 19.1496 76.9347 18.6648C76.6922 18.1761 76.571 17.5606 76.571 16.8182V11.2727H77.9119V16.7273C77.9119 17.3636 78.09 17.8712 78.446 18.25C78.8059 18.6288 79.2642 18.8182 79.821 18.8182C80.1544 18.8182 80.4934 18.733 80.8381 18.5625C81.1866 18.392 81.4782 18.1307 81.7131 17.7784C81.9517 17.4261 82.071 16.9773 82.071 16.4318ZM87.2088 8.36364V20H85.8679V8.36364H87.2088ZM93.4602 11.2727V12.4091H88.9375V11.2727H93.4602ZM90.2557 9.18182H91.5966V17.5C91.5966 17.8788 91.6515 18.1629 91.7614 18.3523C91.875 18.5379 92.0189 18.6629 92.1932 18.7273C92.3712 18.7879 92.5587 18.8182 92.7557 18.8182C92.9034 18.8182 93.0246 18.8106 93.1193 18.7955C93.214 18.7765 93.2898 18.7614 93.3466 18.75L93.6193 19.9545C93.5284 19.9886 93.4015 20.0227 93.2386 20.0568C93.0758 20.0947 92.8693 20.1136 92.6193 20.1136C92.2405 20.1136 91.8693 20.0322 91.5057 19.8693C91.1458 19.7064 90.8466 19.4583 90.608 19.125C90.3731 18.7917 90.2557 18.3712 90.2557 17.8636V9.18182Z" fill="#495057"/>
<rect x="0.5" y="0.5" width="27" height="27" rx="3.5" fill="white" stroke="#DDE2E5"/>
<path d="M191.773 55.2727C191.705 54.697 191.428 54.25 190.943 53.9318C190.458 53.6136 189.864 53.4545 189.159 53.4545C188.644 53.4545 188.193 53.5379 187.807 53.7045C187.424 53.8712 187.125 54.1004 186.909 54.392C186.697 54.6837 186.591 55.0152 186.591 55.3864C186.591 55.697 186.665 55.964 186.812 56.1875C186.964 56.4072 187.157 56.5909 187.392 56.7386C187.627 56.8826 187.873 57.0019 188.131 57.0966C188.388 57.1875 188.625 57.2614 188.841 57.3182L190.023 57.6364C190.326 57.7159 190.663 57.8258 191.034 57.9659C191.409 58.1061 191.767 58.2973 192.108 58.5398C192.453 58.7784 192.737 59.0852 192.96 59.4602C193.184 59.8352 193.295 60.2955 193.295 60.8409C193.295 61.4697 193.131 62.0379 192.801 62.5455C192.475 63.053 191.998 63.4564 191.369 63.7557C190.744 64.0549 189.985 64.2045 189.091 64.2045C188.258 64.2045 187.536 64.0701 186.926 63.8011C186.32 63.5322 185.843 63.1572 185.494 62.6761C185.15 62.1951 184.955 61.6364 184.909 61H186.364C186.402 61.4394 186.549 61.803 186.807 62.0909C187.068 62.375 187.398 62.5871 187.795 62.7273C188.197 62.8636 188.629 62.9318 189.091 62.9318C189.629 62.9318 190.112 62.8447 190.54 62.6705C190.968 62.4924 191.307 62.2462 191.557 61.9318C191.807 61.6136 191.932 61.2424 191.932 60.8182C191.932 60.4318 191.824 60.1174 191.608 59.875C191.392 59.6326 191.108 59.4356 190.756 59.2841C190.403 59.1326 190.023 59 189.614 58.8864L188.182 58.4773C187.273 58.2159 186.553 57.8428 186.023 57.358C185.492 56.8731 185.227 56.2386 185.227 55.4545C185.227 54.803 185.403 54.2348 185.756 53.75C186.112 53.2614 186.589 52.8826 187.188 52.6136C187.79 52.3409 188.462 52.2045 189.205 52.2045C189.955 52.2045 190.621 52.339 191.205 52.608C191.788 52.8731 192.25 53.2367 192.591 53.6989C192.936 54.161 193.117 54.6856 193.136 55.2727H191.773ZM199.089 64.1818C198.249 64.1818 197.523 63.9962 196.913 63.625C196.307 63.25 195.839 62.7273 195.51 62.0568C195.184 61.3826 195.021 60.5985 195.021 59.7045C195.021 58.8106 195.184 58.0227 195.51 57.3409C195.839 56.6553 196.298 56.1212 196.885 55.7386C197.476 55.3523 198.165 55.1591 198.953 55.1591C199.408 55.1591 199.857 55.2348 200.3 55.3864C200.743 55.5379 201.146 55.7841 201.51 56.125C201.874 56.4621 202.163 56.9091 202.379 57.4659C202.595 58.0227 202.703 58.7083 202.703 59.5227V60.0909H195.976V58.9318H201.339C201.339 58.4394 201.241 58 201.044 57.6136C200.851 57.2273 200.574 56.9223 200.214 56.6989C199.858 56.4754 199.438 56.3636 198.953 56.3636C198.419 56.3636 197.957 56.4962 197.567 56.7614C197.18 57.0227 196.883 57.3636 196.675 57.7841C196.466 58.2045 196.362 58.6553 196.362 59.1364V59.9091C196.362 60.5682 196.476 61.1269 196.703 61.5852C196.934 62.0398 197.254 62.3864 197.663 62.625C198.072 62.8598 198.548 62.9773 199.089 62.9773C199.442 62.9773 199.76 62.928 200.044 62.8295C200.332 62.7273 200.58 62.5758 200.788 62.375C200.997 62.1705 201.158 61.9167 201.271 61.6136L202.567 61.9773C202.43 62.4167 202.201 62.803 201.879 63.1364C201.557 63.4659 201.16 63.7235 200.686 63.9091C200.213 64.0909 199.68 64.1818 199.089 64.1818ZM206.084 52.3636V64H204.743V52.3636H206.084ZM212.199 64.1818C211.358 64.1818 210.633 63.9962 210.023 63.625C209.417 63.25 208.949 62.7273 208.619 62.0568C208.294 61.3826 208.131 60.5985 208.131 59.7045C208.131 58.8106 208.294 58.0227 208.619 57.3409C208.949 56.6553 209.407 56.1212 209.994 55.7386C210.585 55.3523 211.275 55.1591 212.062 55.1591C212.517 55.1591 212.966 55.2348 213.409 55.3864C213.852 55.5379 214.256 55.7841 214.619 56.125C214.983 56.4621 215.273 56.9091 215.489 57.4659C215.705 58.0227 215.812 58.7083 215.812 59.5227V60.0909H209.085V58.9318H214.449C214.449 58.4394 214.35 58 214.153 57.6136C213.96 57.2273 213.684 56.9223 213.324 56.6989C212.968 56.4754 212.547 56.3636 212.062 56.3636C211.528 56.3636 211.066 56.4962 210.676 56.7614C210.29 57.0227 209.992 57.3636 209.784 57.7841C209.576 58.2045 209.472 58.6553 209.472 59.1364V59.9091C209.472 60.5682 209.585 61.1269 209.812 61.5852C210.044 62.0398 210.364 62.3864 210.773 62.625C211.182 62.8598 211.657 62.9773 212.199 62.9773C212.551 62.9773 212.869 62.928 213.153 62.8295C213.441 62.7273 213.689 62.5758 213.898 62.375C214.106 62.1705 214.267 61.9167 214.381 61.6136L215.676 61.9773C215.54 62.4167 215.311 62.803 214.989 63.1364C214.667 63.4659 214.269 63.7235 213.795 63.9091C213.322 64.0909 212.79 64.1818 212.199 64.1818ZM221.398 64.1818C220.58 64.1818 219.875 63.9886 219.284 63.6023C218.693 63.2159 218.239 62.6837 217.92 62.0057C217.602 61.3277 217.443 60.553 217.443 59.6818C217.443 58.7955 217.606 58.0133 217.932 57.3352C218.261 56.6534 218.72 56.1212 219.307 55.7386C219.898 55.3523 220.587 55.1591 221.375 55.1591C221.989 55.1591 222.542 55.2727 223.034 55.5C223.527 55.7273 223.93 56.0455 224.244 56.4545C224.559 56.8636 224.754 57.3409 224.83 57.8864H223.489C223.386 57.4886 223.159 57.1364 222.807 56.8295C222.458 56.5189 221.989 56.3636 221.398 56.3636C220.875 56.3636 220.417 56.5 220.023 56.7727C219.633 57.0417 219.328 57.4223 219.108 57.9148C218.892 58.4034 218.784 58.9773 218.784 59.6364C218.784 60.3106 218.89 60.8977 219.102 61.3977C219.318 61.8977 219.621 62.286 220.011 62.5625C220.405 62.839 220.867 62.9773 221.398 62.9773C221.746 62.9773 222.062 62.9167 222.347 62.7955C222.631 62.6742 222.871 62.5 223.068 62.2727C223.265 62.0455 223.405 61.7727 223.489 61.4545H224.83C224.754 61.9697 224.566 62.4337 224.267 62.8466C223.972 63.2557 223.58 63.5814 223.091 63.8239C222.606 64.0625 222.042 64.1818 221.398 64.1818ZM230.585 55.2727V56.4091H226.062V55.2727H230.585ZM227.381 53.1818H228.722V61.5C228.722 61.8788 228.777 62.1629 228.886 62.3523C229 62.5379 229.144 62.6629 229.318 62.7273C229.496 62.7879 229.684 62.8182 229.881 62.8182C230.028 62.8182 230.15 62.8106 230.244 62.7955C230.339 62.7765 230.415 62.7614 230.472 62.75L230.744 63.9545C230.653 63.9886 230.527 64.0227 230.364 64.0568C230.201 64.0947 229.994 64.1136 229.744 64.1136C229.366 64.1136 228.994 64.0322 228.631 63.8693C228.271 63.7064 227.972 63.4583 227.733 63.125C227.498 62.7917 227.381 62.3712 227.381 61.8636V53.1818ZM236.168 64.1818C235.327 64.1818 234.601 63.9962 233.991 63.625C233.385 63.25 232.918 62.7273 232.588 62.0568C232.262 61.3826 232.099 60.5985 232.099 59.7045C232.099 58.8106 232.262 58.0227 232.588 57.3409C232.918 56.6553 233.376 56.1212 233.963 55.7386C234.554 55.3523 235.243 55.1591 236.031 55.1591C236.486 55.1591 236.935 55.2348 237.378 55.3864C237.821 55.5379 238.224 55.7841 238.588 56.125C238.952 56.4621 239.241 56.9091 239.457 57.4659C239.673 58.0227 239.781 58.7083 239.781 59.5227V60.0909H233.054V58.9318H238.418C238.418 58.4394 238.319 58 238.122 57.6136C237.929 57.2273 237.652 56.9223 237.293 56.6989C236.937 56.4754 236.516 56.3636 236.031 56.3636C235.497 56.3636 235.035 56.4962 234.645 56.7614C234.259 57.0227 233.961 57.3636 233.753 57.7841C233.545 58.2045 233.44 58.6553 233.44 59.1364V59.9091C233.44 60.5682 233.554 61.1269 233.781 61.5852C234.012 62.0398 234.332 62.3864 234.741 62.625C235.151 62.8598 235.626 62.9773 236.168 62.9773C236.52 62.9773 236.838 62.928 237.122 62.8295C237.41 62.7273 237.658 62.5758 237.866 62.375C238.075 62.1705 238.236 61.9167 238.349 61.6136L239.645 61.9773C239.509 62.4167 239.279 62.803 238.957 63.1364C238.635 63.4659 238.238 63.7235 237.764 63.9091C237.291 64.0909 236.759 64.1818 236.168 64.1818ZM245.116 64.1818C244.389 64.1818 243.747 63.9981 243.19 63.6307C242.634 63.2595 242.198 62.7367 241.884 62.0625C241.569 61.3845 241.412 60.5833 241.412 59.6591C241.412 58.7424 241.569 57.947 241.884 57.2727C242.198 56.5985 242.635 56.0777 243.196 55.7102C243.757 55.3428 244.404 55.1591 245.139 55.1591C245.707 55.1591 246.156 55.2538 246.486 55.4432C246.819 55.6288 247.073 55.8409 247.247 56.0795C247.425 56.3144 247.563 56.5076 247.662 56.6591H247.776V52.3636H249.116V64H247.821V62.6591H247.662C247.563 62.8182 247.423 63.0189 247.241 63.2614C247.06 63.5 246.8 63.714 246.463 63.9034C246.126 64.089 245.677 64.1818 245.116 64.1818ZM245.298 62.9773C245.836 62.9773 246.291 62.8371 246.662 62.5568C247.033 62.2727 247.315 61.8807 247.509 61.3807C247.702 60.8769 247.798 60.2955 247.798 59.6364C247.798 58.9848 247.704 58.4148 247.514 57.9261C247.325 57.4337 247.045 57.0511 246.673 56.7784C246.302 56.5019 245.844 56.3636 245.298 56.3636C244.73 56.3636 244.257 56.5095 243.878 56.8011C243.503 57.089 243.221 57.4811 243.031 57.9773C242.846 58.4697 242.753 59.0227 242.753 59.6364C242.753 60.2576 242.848 60.822 243.037 61.3295C243.23 61.8333 243.514 62.2348 243.889 62.5341C244.268 62.8295 244.738 62.9773 245.298 62.9773Z" fill="#495057"/>
<rect x="145" y="45" width="26" height="26" rx="13" stroke="#4263EB" stroke-width="2"/>
<rect x="149" y="49" width="18" height="18" rx="9" fill="#4263EB"/>
<path d="M189 20H185.409V8.36364H189.159C190.288 8.36364 191.254 8.59659 192.057 9.0625C192.86 9.52462 193.475 10.1894 193.903 11.0568C194.331 11.9205 194.545 12.9545 194.545 14.1591C194.545 15.3712 194.33 16.4148 193.898 17.2898C193.466 18.161 192.837 18.8314 192.011 19.3011C191.186 19.767 190.182 20 189 20ZM186.818 18.75H188.909C189.871 18.75 190.669 18.5644 191.301 18.1932C191.934 17.822 192.405 17.2936 192.716 16.608C193.027 15.9223 193.182 15.1061 193.182 14.1591C193.182 13.2197 193.028 12.411 192.722 11.733C192.415 11.0511 191.956 10.5284 191.347 10.1648C190.737 9.79735 189.977 9.61364 189.068 9.61364H186.818V18.75ZM200.386 20.1818C199.545 20.1818 198.82 19.9962 198.21 19.625C197.604 19.25 197.136 18.7273 196.807 18.0568C196.481 17.3826 196.318 16.5985 196.318 15.7045C196.318 14.8106 196.481 14.0227 196.807 13.3409C197.136 12.6553 197.595 12.1212 198.182 11.7386C198.773 11.3523 199.462 11.1591 200.25 11.1591C200.705 11.1591 201.153 11.2348 201.597 11.3864C202.04 11.5379 202.443 11.7841 202.807 12.125C203.17 12.4621 203.46 12.9091 203.676 13.4659C203.892 14.0227 204 14.7083 204 15.5227V16.0909H197.273V14.9318H202.636C202.636 14.4394 202.538 14 202.341 13.6136C202.148 13.2273 201.871 12.9223 201.511 12.6989C201.155 12.4754 200.735 12.3636 200.25 12.3636C199.716 12.3636 199.254 12.4962 198.864 12.7614C198.477 13.0227 198.18 13.3636 197.972 13.7841C197.763 14.2045 197.659 14.6553 197.659 15.1364V15.9091C197.659 16.5682 197.773 17.1269 198 17.5852C198.231 18.0398 198.551 18.3864 198.96 18.625C199.369 18.8598 199.845 18.9773 200.386 18.9773C200.739 18.9773 201.057 18.928 201.341 18.8295C201.629 18.7273 201.877 18.5758 202.085 18.375C202.294 18.1705 202.455 17.9167 202.568 17.6136L203.864 17.9773C203.727 18.4167 203.498 18.803 203.176 19.1364C202.854 19.4659 202.456 19.7235 201.983 19.9091C201.509 20.0909 200.977 20.1818 200.386 20.1818ZM209.926 11.2727V12.4091H205.222V11.2727H209.926ZM206.631 20V10.0682C206.631 9.56818 206.748 9.15151 206.983 8.81818C207.218 8.48485 207.523 8.23485 207.898 8.06818C208.273 7.90151 208.669 7.81818 209.085 7.81818C209.415 7.81818 209.684 7.8447 209.892 7.89773C210.1 7.95076 210.256 8 210.358 8.04545L209.972 9.20455C209.903 9.18182 209.809 9.15341 209.688 9.11932C209.57 9.08523 209.415 9.06818 209.222 9.06818C208.778 9.06818 208.458 9.17992 208.261 9.40341C208.068 9.62689 207.972 9.95455 207.972 10.3864V20H206.631ZM214.124 20.2045C213.571 20.2045 213.069 20.1004 212.618 19.892C212.167 19.6799 211.809 19.375 211.544 18.9773C211.279 18.5758 211.146 18.0909 211.146 17.5227C211.146 17.0227 211.245 16.6174 211.442 16.3068C211.639 15.9924 211.902 15.7462 212.232 15.5682C212.561 15.3902 212.925 15.2576 213.322 15.1705C213.724 15.0795 214.127 15.0076 214.533 14.9545C215.063 14.8864 215.493 14.8352 215.822 14.8011C216.156 14.7633 216.398 14.7008 216.55 14.6136C216.705 14.5265 216.783 14.375 216.783 14.1591V14.1136C216.783 13.553 216.629 13.1174 216.322 12.8068C216.019 12.4962 215.559 12.3409 214.942 12.3409C214.302 12.3409 213.8 12.4811 213.436 12.7614C213.072 13.0417 212.817 13.3409 212.669 13.6591L211.396 13.2045C211.624 12.6742 211.927 12.2614 212.305 11.9659C212.688 11.6667 213.105 11.4583 213.555 11.3409C214.01 11.2197 214.457 11.1591 214.896 11.1591C215.177 11.1591 215.499 11.1932 215.862 11.2614C216.23 11.3258 216.584 11.4602 216.925 11.6648C217.269 11.8693 217.555 12.178 217.783 12.5909C218.01 13.0038 218.124 13.5568 218.124 14.25V20H216.783V18.8182H216.714C216.624 19.0076 216.472 19.2102 216.26 19.4261C216.048 19.642 215.766 19.8258 215.413 19.9773C215.061 20.1288 214.631 20.2045 214.124 20.2045ZM214.328 19C214.858 19 215.305 18.8958 215.669 18.6875C216.036 18.4792 216.313 18.2102 216.499 17.8807C216.688 17.5511 216.783 17.2045 216.783 16.8409V15.6136C216.726 15.6818 216.601 15.7443 216.408 15.8011C216.218 15.8542 215.999 15.9015 215.749 15.9432C215.502 15.9811 215.262 16.0152 215.027 16.0455C214.796 16.072 214.608 16.0947 214.464 16.1136C214.116 16.1591 213.79 16.233 213.487 16.3352C213.188 16.4337 212.946 16.5833 212.76 16.7841C212.578 16.9811 212.487 17.25 212.487 17.5909C212.487 18.0568 212.66 18.4091 213.004 18.6477C213.353 18.8826 213.794 19 214.328 19ZM226.071 16.4318V11.2727H227.412V20H226.071V18.5227H225.98C225.776 18.9659 225.457 19.3428 225.026 19.6534C224.594 19.9602 224.048 20.1136 223.389 20.1136C222.844 20.1136 222.359 19.9943 221.935 19.7557C221.51 19.5133 221.177 19.1496 220.935 18.6648C220.692 18.1761 220.571 17.5606 220.571 16.8182V11.2727H221.912V16.7273C221.912 17.3636 222.09 17.8712 222.446 18.25C222.806 18.6288 223.264 18.8182 223.821 18.8182C224.154 18.8182 224.493 18.733 224.838 18.5625C225.187 18.392 225.478 18.1307 225.713 17.7784C225.952 17.4261 226.071 16.9773 226.071 16.4318ZM231.209 8.36364V20H229.868V8.36364H231.209ZM237.46 11.2727V12.4091H232.938V11.2727H237.46ZM234.256 9.18182H235.597V17.5C235.597 17.8788 235.652 18.1629 235.761 18.3523C235.875 18.5379 236.019 18.6629 236.193 18.7273C236.371 18.7879 236.559 18.8182 236.756 18.8182C236.903 18.8182 237.025 18.8106 237.119 18.7955C237.214 18.7765 237.29 18.7614 237.347 18.75L237.619 19.9545C237.528 19.9886 237.402 20.0227 237.239 20.0568C237.076 20.0947 236.869 20.1136 236.619 20.1136C236.241 20.1136 235.869 20.0322 235.506 19.8693C235.146 19.7064 234.847 19.4583 234.608 19.125C234.373 18.7917 234.256 18.3712 234.256 17.8636V9.18182Z" fill="#495057"/>
<rect x="144.5" y="0.5" width="27" height="27" rx="13.5" fill="white" stroke="#DDE2E5"/>
<path d="M189 108H185.409V96.3636H189.159C190.288 96.3636 191.254 96.5966 192.057 97.0625C192.86 97.5246 193.475 98.1894 193.903 99.0568C194.331 99.9205 194.545 100.955 194.545 102.159C194.545 103.371 194.33 104.415 193.898 105.29C193.466 106.161 192.837 106.831 192.011 107.301C191.186 107.767 190.182 108 189 108ZM186.818 106.75H188.909C189.871 106.75 190.669 106.564 191.301 106.193C191.934 105.822 192.405 105.294 192.716 104.608C193.027 103.922 193.182 103.106 193.182 102.159C193.182 101.22 193.028 100.411 192.722 99.733C192.415 99.0511 191.956 98.5284 191.347 98.1648C190.737 97.7973 189.977 97.6136 189.068 97.6136H186.818V106.75ZM196.727 108V99.2727H198.068V108H196.727ZM197.409 97.8182C197.148 97.8182 196.922 97.7292 196.733 97.5511C196.547 97.3731 196.455 97.1591 196.455 96.9091C196.455 96.6591 196.547 96.4451 196.733 96.267C196.922 96.089 197.148 96 197.409 96C197.67 96 197.894 96.089 198.08 96.267C198.269 96.4451 198.364 96.6591 198.364 96.9091C198.364 97.1591 198.269 97.3731 198.08 97.5511C197.894 97.7292 197.67 97.8182 197.409 97.8182ZM206.706 101.227L205.501 101.568C205.426 101.367 205.314 101.172 205.166 100.983C205.022 100.79 204.825 100.631 204.575 100.506C204.325 100.381 204.005 100.318 203.615 100.318C203.081 100.318 202.636 100.441 202.28 100.688C201.928 100.93 201.751 101.239 201.751 101.614C201.751 101.947 201.873 102.21 202.115 102.403C202.357 102.597 202.736 102.758 203.251 102.886L204.547 103.205C205.327 103.394 205.909 103.684 206.291 104.074C206.674 104.46 206.865 104.958 206.865 105.568C206.865 106.068 206.721 106.515 206.433 106.909C206.149 107.303 205.751 107.614 205.24 107.841C204.729 108.068 204.134 108.182 203.456 108.182C202.566 108.182 201.829 107.989 201.246 107.602C200.662 107.216 200.293 106.652 200.138 105.909L201.411 105.591C201.532 106.061 201.761 106.413 202.098 106.648C202.439 106.883 202.884 107 203.433 107C204.058 107 204.554 106.867 204.922 106.602C205.293 106.333 205.479 106.011 205.479 105.636C205.479 105.333 205.373 105.08 205.161 104.875C204.948 104.667 204.623 104.511 204.183 104.409L202.729 104.068C201.929 103.879 201.342 103.585 200.967 103.188C200.596 102.786 200.411 102.284 200.411 101.682C200.411 101.189 200.549 100.754 200.825 100.375C201.106 99.9962 201.486 99.6989 201.967 99.483C202.452 99.267 203.001 99.1591 203.615 99.1591C204.479 99.1591 205.157 99.3485 205.649 99.7273C206.145 100.106 206.498 100.606 206.706 101.227ZM211.452 108.205C210.899 108.205 210.397 108.1 209.946 107.892C209.495 107.68 209.137 107.375 208.872 106.977C208.607 106.576 208.474 106.091 208.474 105.523C208.474 105.023 208.573 104.617 208.77 104.307C208.967 103.992 209.23 103.746 209.56 103.568C209.889 103.39 210.253 103.258 210.651 103.17C211.052 103.08 211.455 103.008 211.861 102.955C212.391 102.886 212.821 102.835 213.151 102.801C213.484 102.763 213.726 102.701 213.878 102.614C214.033 102.527 214.111 102.375 214.111 102.159V102.114C214.111 101.553 213.957 101.117 213.651 100.807C213.348 100.496 212.887 100.341 212.27 100.341C211.63 100.341 211.128 100.481 210.764 100.761C210.401 101.042 210.145 101.341 209.997 101.659L208.724 101.205C208.952 100.674 209.255 100.261 209.634 99.9659C210.016 99.6667 210.433 99.4583 210.884 99.3409C211.338 99.2197 211.785 99.1591 212.224 99.1591C212.505 99.1591 212.827 99.1932 213.19 99.2614C213.558 99.3258 213.912 99.4602 214.253 99.6648C214.598 99.8693 214.884 100.178 215.111 100.591C215.338 101.004 215.452 101.557 215.452 102.25V108H214.111V106.818H214.043C213.952 107.008 213.8 107.21 213.588 107.426C213.376 107.642 213.094 107.826 212.741 107.977C212.389 108.129 211.959 108.205 211.452 108.205ZM211.656 107C212.187 107 212.634 106.896 212.997 106.688C213.365 106.479 213.641 106.21 213.827 105.881C214.016 105.551 214.111 105.205 214.111 104.841V103.614C214.054 103.682 213.929 103.744 213.736 103.801C213.546 103.854 213.327 103.902 213.077 103.943C212.83 103.981 212.59 104.015 212.355 104.045C212.124 104.072 211.937 104.095 211.793 104.114C211.444 104.159 211.118 104.233 210.815 104.335C210.516 104.434 210.274 104.583 210.088 104.784C209.906 104.981 209.815 105.25 209.815 105.591C209.815 106.057 209.988 106.409 210.332 106.648C210.681 106.883 211.122 107 211.656 107ZM218.081 108V96.3636H219.422V100.659H219.536C219.634 100.508 219.77 100.314 219.945 100.08C220.123 99.8409 220.376 99.6288 220.706 99.4432C221.039 99.2538 221.49 99.1591 222.058 99.1591C222.793 99.1591 223.441 99.3428 224.001 99.7102C224.562 100.078 225 100.598 225.314 101.273C225.628 101.947 225.786 102.742 225.786 103.659C225.786 104.583 225.628 105.384 225.314 106.062C225 106.737 224.564 107.259 224.007 107.631C223.45 107.998 222.808 108.182 222.081 108.182C221.52 108.182 221.071 108.089 220.734 107.903C220.397 107.714 220.138 107.5 219.956 107.261C219.774 107.019 219.634 106.818 219.536 106.659H219.376V108H218.081ZM219.399 103.636C219.399 104.295 219.496 104.877 219.689 105.381C219.882 105.881 220.164 106.273 220.536 106.557C220.907 106.837 221.361 106.977 221.899 106.977C222.46 106.977 222.928 106.83 223.303 106.534C223.681 106.235 223.965 105.833 224.155 105.33C224.348 104.822 224.445 104.258 224.445 103.636C224.445 103.023 224.35 102.47 224.161 101.977C223.975 101.481 223.693 101.089 223.314 100.801C222.939 100.509 222.467 100.364 221.899 100.364C221.354 100.364 220.895 100.502 220.524 100.778C220.153 101.051 219.873 101.434 219.683 101.926C219.494 102.415 219.399 102.985 219.399 103.636ZM229.178 96.3636V108H227.837V96.3636H229.178ZM235.293 108.182C234.452 108.182 233.726 107.996 233.116 107.625C232.51 107.25 232.043 106.727 231.713 106.057C231.387 105.383 231.224 104.598 231.224 103.705C231.224 102.811 231.387 102.023 231.713 101.341C232.043 100.655 232.501 100.121 233.088 99.7386C233.679 99.3523 234.368 99.1591 235.156 99.1591C235.611 99.1591 236.06 99.2348 236.503 99.3864C236.946 99.5379 237.349 99.7841 237.713 100.125C238.077 100.462 238.366 100.909 238.582 101.466C238.798 102.023 238.906 102.708 238.906 103.523V104.091H232.179V102.932H237.543C237.543 102.439 237.444 102 237.247 101.614C237.054 101.227 236.777 100.922 236.418 100.699C236.062 100.475 235.641 100.364 235.156 100.364C234.622 100.364 234.16 100.496 233.77 100.761C233.384 101.023 233.086 101.364 232.878 101.784C232.67 102.205 232.565 102.655 232.565 103.136V103.909C232.565 104.568 232.679 105.127 232.906 105.585C233.137 106.04 233.457 106.386 233.866 106.625C234.276 106.86 234.751 106.977 235.293 106.977C235.645 106.977 235.963 106.928 236.247 106.83C236.535 106.727 236.783 106.576 236.991 106.375C237.2 106.17 237.361 105.917 237.474 105.614L238.77 105.977C238.634 106.417 238.404 106.803 238.082 107.136C237.76 107.466 237.363 107.723 236.889 107.909C236.416 108.091 235.884 108.182 235.293 108.182ZM244.241 108.182C243.514 108.182 242.872 107.998 242.315 107.631C241.759 107.259 241.323 106.737 241.009 106.062C240.694 105.384 240.537 104.583 240.537 103.659C240.537 102.742 240.694 101.947 241.009 101.273C241.323 100.598 241.76 100.078 242.321 99.7102C242.882 99.3428 243.529 99.1591 244.264 99.1591C244.832 99.1591 245.281 99.2538 245.611 99.4432C245.944 99.6288 246.198 99.8409 246.372 100.08C246.55 100.314 246.688 100.508 246.787 100.659H246.901V96.3636H248.241V108H246.946V106.659H246.787C246.688 106.818 246.548 107.019 246.366 107.261C246.185 107.5 245.925 107.714 245.588 107.903C245.251 108.089 244.802 108.182 244.241 108.182ZM244.423 106.977C244.961 106.977 245.416 106.837 245.787 106.557C246.158 106.273 246.44 105.881 246.634 105.381C246.827 104.877 246.923 104.295 246.923 103.636C246.923 102.985 246.829 102.415 246.639 101.926C246.45 101.434 246.17 101.051 245.798 100.778C245.427 100.502 244.969 100.364 244.423 100.364C243.855 100.364 243.382 100.509 243.003 100.801C242.628 101.089 242.346 101.481 242.156 101.977C241.971 102.47 241.878 103.023 241.878 103.636C241.878 104.258 241.973 104.822 242.162 105.33C242.355 105.833 242.639 106.235 243.014 106.534C243.393 106.83 243.863 106.977 244.423 106.977Z" fill="#DDE2E5"/>
<rect x="144" y="88" width="28" height="28" rx="14" fill="#DDE2E5"/>
</svg>
